<svg width="32" height="32" viewBox="0 0 32 32" fill="none" xmlns="http://www.w3.org/2000/svg">
<rect x="6.45605" y="5.49976" width="20" height="21" fill="#EAF7FD"/>
<path d="M25.676 4H6.566C5.701 4 5 4.60171 5 5.34229V27.0391C5 27.7806 5.7 28.3806 6.566 28.3806H25.676C26.542 28.3806 27.242 27.7806 27.242 27.04V5.34314C27.242 4.60171 26.542 4 25.677 4H25.676ZM16.123 27.8997C16.0379 27.9038 15.9528 27.893 15.8728 27.868C15.7928 27.8429 15.7196 27.8041 15.6577 27.754C15.5958 27.7038 15.5464 27.6434 15.5127 27.5763C15.479 27.5093 15.4616 27.437 15.4616 27.364C15.4616 27.291 15.479 27.2187 15.5127 27.1517C15.5464 27.0846 15.5958 27.0242 15.6577 26.974C15.7196 26.9239 15.7928 26.8851 15.8728 26.86C15.9528 26.835 16.0379 26.8242 16.123 26.8283C16.2811 26.8377 16.4292 26.8982 16.5374 26.9975C16.6455 27.0969 16.7057 27.2277 16.7057 27.3636C16.7057 27.4995 16.6455 27.6303 16.5374 27.7296C16.4292 27.829 16.2811 27.8903 16.123 27.8997ZM24.833 25.804C24.8327 25.875 24.7996 25.943 24.741 25.9932C24.6823 26.0433 24.6028 26.0714 24.52 26.0714H7.726C7.64324 26.0712 7.56393 26.043 7.50532 25.9929C7.4467 25.9428 7.41353 25.8749 7.413 25.804V6.47114C7.413 6.32286 7.553 6.20286 7.726 6.20286H24.518C24.69 6.20286 24.83 6.32286 24.83 6.47114L24.833 25.804Z" fill="#A1B3C0"/>
</svg>
