<svg width="32" height="32" viewBox="0 0 32 32" fill="none" xmlns="http://www.w3.org/2000/svg">
<rect x="8" y="5.42859" width="16" height="22" fill="#EAF7FD"/>
<path d="M13.3333 5C12.2919 5 10.6667 5 10.6667 5C9.95942 5 9.28115 5.26757 8.78105 5.74386C8.28095 6.22014 8 6.86612 8 7.53968V25.3175C8 25.991 8.28095 26.637 8.78105 27.1133C9.28115 27.5896 9.95942 27.8571 10.6667 27.8571H21.3333C22.0406 27.8571 22.7189 27.5896 23.219 27.1133C23.719 26.637 24 25.991 24 25.3175V7.53968C24 6.86612 23.719 6.22014 23.219 5.74386C22.7189 5.26757 22.0406 5 21.3333 5C21.3333 5 19.7081 5 18.6667 5M13.3333 5C15.4161 5 16.5839 5 18.6667 5M13.3333 5C13.3333 5.4959 13.3333 5.12698 13.3333 5.12698M18.6667 5C18.6667 5.4959 18.6667 5.12698 18.6667 5.12698M13.3333 5.12698C13.3333 5.46377 13.4738 5.78676 13.7239 6.0249C13.9739 6.26304 14.313 6.39683 14.6667 6.39683H17.3333C17.687 6.39683 18.0261 6.26304 18.2761 6.0249C18.5262 5.78676 18.6667 5.46377 18.6667 5.12698M13.3333 5.12698H16H18.6667" stroke="#A1B3C0" stroke-width="2" stroke-linecap="round" stroke-linejoin="round"/>
</svg>
