<svg width="32" height="32" viewBox="0 0 32 32" fill="none" xmlns="http://www.w3.org/2000/svg">
<rect x="3.39996" y="6.34998" width="26.25" height="13.65" fill="#EAF7FD"/>
<path d="M18.8 23V25.4L21.6 26.6V27.8H10.4L10.3944 26.6048L13.2 25.4V23H3.38884C3.20499 22.9987 3.02323 22.9664 2.85393 22.905C2.68464 22.8435 2.53113 22.754 2.40216 22.6417C2.2732 22.5294 2.17131 22.3964 2.10232 22.2503C2.03332 22.1043 1.99857 21.948 2.00005 21.7904V6.2096C2.00005 5.5412 2.63704 5 3.38884 5H28.6112C29.3784 5 30 5.5388 30 6.2084V21.7904C30 22.4588 29.363 23 28.6112 23H18.8ZM4.80004 7.4V18.2H27.2V7.4H4.80004Z" fill="#A1B3C0"/>
</svg>
