<svg xmlns="http://www.w3.org/2000/svg" width="24" height="24" viewBox="0 0 24 24" fill="none">
  <path d="M4.20752 13.8182C4.07177 13.2341 4 12.6254 4 12C4 11.3746 4.07177 10.7659 4.20752 10.1818M10.5455 4.13191C11.0171 4.04527 11.5033 4 12 4C16.4183 4 20 7.58172 20 12C20 16.4183 16.4183 20 12 20C11.5033 20 11.0171 19.9547 10.5455 19.8681M8 5.07026C6.90882 5.70147 5.98057 6.58302 5.29377 7.63636M5.29377 16.3636C5.98057 17.417 6.90882 18.2985 8 18.9297M14.4 10.4L11.2527 13.5473C11.223 13.577 11.1754 13.5787 11.1437 13.5512L9.6 12.2138" stroke="#66707A" stroke-width="1.5" stroke-linecap="round"/>
</svg>