<svg xmlns="http://www.w3.org/2000/svg" width="16" height="24" viewBox="0 0 16 24" fill="none">
  <path fill-rule="evenodd" clip-rule="evenodd" d="M10.0627 15.689C9.46217 16.0155 8.76251 16.2 8 16.2C5.58474 16.2 3.8 14.3486 3.8 12C3.8 9.65144 5.58474 7.8 8 7.8C10.4153 7.8 12.2 9.65144 12.2 12C12.2 12.7531 12.0165 13.455 11.6876 14.0612L10.6686 13.0423L9.0423 14.6686L10.0627 15.689ZM11.7332 17.3596C10.6913 18.0789 9.41283 18.5 8 18.5C4.28571 18.5 1.5 15.5899 1.5 12C1.5 8.41015 4.28571 5.5 8 5.5C11.7143 5.5 14.5 8.41015 14.5 12C14.5 13.3884 14.0833 14.6751 13.3574 15.7311L14.3829 16.7566L12.7566 18.3829L11.7332 17.3596Z" fill="#FC6969"/>
</svg>