<svg xmlns="http://www.w3.org/2000/svg" width="24" height="24" viewBox="0 0 24 24" fill="none">
  <path d="M4 10.2H20M8.44444 6.6V3M15.5556 6.6V3M9.68889 21H14.3111C16.3024 21 17.2981 21 18.0586 20.6076C18.7277 20.2625 19.2716 19.7117 19.6125 19.0344C20 18.2643 20 17.2562 20 15.24V10.56C20 8.54381 20 7.53572 19.6125 6.76563C19.2716 6.08825 18.7277 5.53752 18.0586 5.19238C17.2981 4.8 16.3024 4.8 14.3111 4.8H9.68889C7.69759 4.8 6.70194 4.8 5.94137 5.19238C5.27235 5.53752 4.72842 6.08825 4.38753 6.76563C4 7.53572 4 8.54381 4 10.56V15.24C4 17.2562 4 18.2643 4.38753 19.0344C4.72842 19.7117 5.27235 20.2625 5.94137 20.6076C6.70194 21 7.69759 21 9.68889 21Z" stroke="black" stroke-width="1.5" stroke-linecap="round"/>
</svg>