<svg id="_80별비활성" data-name="80별비활성" xmlns="http://www.w3.org/2000/svg" width="80" height="80" viewBox="0 0 80 80">
  <path id="e1f07707b95b3bdc05e2823cce116daa" d="M64.25,78.779a4.011,4.011,0,0,1-1.861-.459L42,67.6,21.612,78.32a4,4,0,0,1-5.8-4.217L19.7,51.4,3.207,35.325A4,4,0,0,1,5.424,28.5l22.795-3.312L38.412,4.534a4.167,4.167,0,0,1,7.176,0L55.781,25.188,78.575,28.5a4,4,0,0,1,2.217,6.824L64.3,51.4l3.894,22.7a4,4,0,0,1-3.943,4.676Z" transform="translate(-2 -0.633)" fill="#eaeaea"/>
  <rect id="사각형_3636" data-name="사각형 3636" width="80" height="80" transform="translate(0)" fill="none"/>
</svg>
