<svg width="20" height="21" viewBox="0 0 20 21" fill="none" xmlns="http://www.w3.org/2000/svg">
<g opacity="0.6">
<path d="M17.8541 8.97041C17.5671 7.47394 16.8612 6.10453 15.8165 5.00806C15.3553 4.51865 14.8235 4.08571 14.2353 3.71394C12.96 2.91865 11.4918 2.49512 9.99529 2.49512C9.47765 2.49512 8.96 2.54688 8.45647 2.64571C8.28706 2.67865 8.12235 2.71629 7.95765 2.75865C6.80941 3.05982 5.73647 3.61982 4.83765 4.39159C3.64706 5.39865 2.78588 6.70688 2.34353 8.17512C2.11765 8.92806 2 9.70924 2 10.5045C2 13.4363 3.60471 16.1328 6.18824 17.5351C7.35059 18.1657 8.66824 18.4998 10 18.4998C12.3294 18.4998 14.5412 17.4834 16.0706 15.7139C17.3176 14.2551 18 12.4057 18 10.5045C18 9.98218 17.9482 9.47394 17.8541 8.97512V8.97041ZM7.92941 5.201L6.92235 5.41747C6.71529 5.27629 6.34353 5.01747 5.93412 4.73041C6.56941 4.27865 7.28 3.93512 8.03294 3.71865L7.92941 5.19629V5.201ZM3.12 8.90924L5.01647 9.51629C5.09176 9.53982 5.17176 9.54453 5.24706 9.53041L7.19529 9.16335L7.84471 11.1586L6.08941 13.2198C5.97647 13.3563 5.94353 13.5398 6.01412 13.7045L6.79529 15.6104L6.25412 16.481C4.20235 15.1916 2.94118 12.9422 2.94118 10.4998C2.94118 9.96335 3.00235 9.42688 3.12 8.90924ZM15.5765 14.8292L14.24 14.2175L15.3976 12.4057C15.4541 12.3163 15.4824 12.2081 15.4682 12.0998L15.1247 8.99394C15.1012 8.78688 14.9459 8.61747 14.7388 8.57982L12.7765 8.23159L11.3929 6.26453L13.9765 4.66923C15.9106 5.98688 17.0541 8.14688 17.0541 10.4998C17.0541 12.0622 16.5318 13.5822 15.5718 14.8245L15.5765 14.8292Z" fill="#717171"/>
</g>
</svg>
