<svg width="44" height="44" viewBox="0 0 44 44" fill="none" xmlns="http://www.w3.org/2000/svg">
<path d="M38.8364 37.5403L36.4142 33.2619C35.9639 32.5067 34.7546 32 33.4037 32H10.5981C9.24715 32 8.03605 32.5067 7.5803 33.2725L5.16718 37.536C4.84035 38.1056 4.99832 38.736 5.59206 39.2224C6.18763 39.7099 7.15541 40 8.18131 40H35.8169C36.8427 40 37.8105 39.7088 38.4061 39.2224C38.9998 38.736 39.1596 38.1056 38.8346 37.5403H38.8364Z" fill="#C4D0DC"/>
<path d="M35.091 17.0715V18.4C35.091 25.7406 29.426 33.6029 22.4597 35.9244C22.3104 35.9748 22.1552 36 22.0001 36C21.8449 36 21.6898 35.9748 21.5405 35.9244C14.5761 33.6029 8.90918 25.7406 8.90918 18.4V17.0715C8.90918 9.86279 14.772 4 21.9807 4H22.0195C29.2282 4 35.091 9.86279 35.091 17.0715ZM27.8183 16.1212C27.8183 12.9135 25.2078 10.303 22.0001 10.303C18.7923 10.303 16.1819 12.9135 16.1819 16.1212C16.1819 19.329 18.7923 21.9394 22.0001 21.9394C25.2078 21.9394 27.8183 19.329 27.8183 16.1212Z" fill="#EB018A"/>
<circle cx="22" cy="17" r="9" fill="white"/>
<path d="M23.7344 13.5156V19.0234C23.7344 19.6367 23.5879 20.1777 23.2949 20.6465C23.002 21.1152 22.5898 21.4785 22.0586 21.7363C21.5273 21.9902 20.9141 22.1172 20.2188 22.1172C19.5234 22.1172 18.9102 21.9902 18.3789 21.7363C17.8516 21.4785 17.4414 21.1152 17.1484 20.6465C16.8594 20.1777 16.7148 19.6367 16.7148 19.0234V13.5156H18.4727V18.8828C18.4727 19.207 18.5449 19.498 18.6895 19.7559C18.834 20.0098 19.0391 20.209 19.3047 20.3535C19.5703 20.498 19.875 20.5703 20.2188 20.5703C20.5664 20.5703 20.873 20.498 21.1387 20.3535C21.4043 20.209 21.6074 20.0098 21.748 19.7559C21.8926 19.498 21.9648 19.207 21.9648 18.8828V13.5156H23.7344ZM26 16.1406H24.5703V15.0859H26V13.7383H27.0664V15.0859H28.4727V16.1406H27.0664V17.4883H26V16.1406Z" fill="#EB018A"/>
</svg>
