<svg width="20" height="20" viewBox="0 0 20 20" fill="none" xmlns="http://www.w3.org/2000/svg">
<g opacity="0.6">
<path fill-rule="evenodd" clip-rule="evenodd" d="M16.7487 15.1321C16.3164 16.4449 14.6235 17.0998 13.4136 16.9907C11.6689 16.7363 10.0148 16.0523 8.60018 15.0003C6.47398 13.4626 4.76276 11.4215 3.61995 9.0599C2.8464 7.41471 2.67255 5.39162 3.82354 3.89224C3.99693 3.62973 4.23042 3.41232 4.50465 3.25806C4.77888 3.10379 5.08595 3.01711 5.40039 3.0052C6.36004 2.95855 6.49421 3.50733 6.82381 4.36171C7.06941 5.00322 7.39668 5.65289 7.5822 6.3154C7.92288 7.5541 6.72523 7.60658 6.57413 8.61667C6.48079 9.2541 7.25259 10.1085 7.60203 10.5634C8.27501 11.4474 9.09895 12.2055 10.0359 12.8028C10.5679 13.1376 11.4249 13.7418 12.0333 13.4082C12.9702 12.895 12.8827 11.3151 14.1918 11.8499C14.8705 12.1558 15.5326 12.4975 16.1752 12.8734C17.1769 13.4117 17.1302 13.9698 16.7481 15.1286" fill="#717171"/>
</g>
</svg>
