<svg width="20" height="21" viewBox="0 0 20 21" fill="none" xmlns="http://www.w3.org/2000/svg">
<g opacity="0.6">
<path d="M3 6.5H17V15.5C17 16.6046 16.1046 17.5 15 17.5H5C3.89543 17.5 3 16.6046 3 15.5V6.5Z" fill="#717171"/>
<path d="M3 5C3 3.89543 3.89543 3 5 3H15C16.1046 3 17 3.89543 17 5V5.5H3V5Z" fill="#717171"/>
<rect x="5" y="9" width="2" height="2" rx="1" fill="white"/>
<rect x="5" y="12" width="2" height="2" rx="1" fill="white"/>
<rect x="8" y="9" width="2" height="2" rx="1" fill="white"/>
<rect x="8" y="12" width="2" height="2" rx="1" fill="white"/>
<rect x="11" y="9" width="2" height="2" rx="1" fill="white"/>
</g>
</svg>
