<svg width="20" height="21" viewBox="0 0 20 21" fill="none" xmlns="http://www.w3.org/2000/svg">
<g opacity="0.6">
<path d="M7.55004 4.5H5.45007C5.25758 4.5 5.10008 4.6666 5.10008 4.87023V11.3129H3.35011C3.21711 11.3129 3.09461 11.3944 3.03511 11.524C2.97561 11.6498 2.99311 11.8016 3.07711 11.9164L6.40906 16.3591C6.47906 16.4517 6.58406 16.5035 6.69255 16.4998C6.80105 16.4998 6.90605 16.4369 6.96905 16.3443L9.937 11.9016C9.979 11.8387 10 11.7646 10 11.6869C10 11.6276 9.986 11.5684 9.9615 11.5166C9.902 11.3944 9.783 11.3166 9.65001 11.3166H7.90003V4.87023C7.90003 4.6666 7.74254 4.5 7.55004 4.5Z" fill="#717171"/>
<path d="M12.45 16.5L14.5499 16.5C14.7424 16.5 14.8999 16.3334 14.8999 16.1298L14.8999 9.68706L16.6499 9.68706C16.7829 9.68706 16.9054 9.60561 16.9649 9.47603C17.0244 9.35015 17.0069 9.19836 16.9229 9.08359L13.5909 4.64087C13.5209 4.54832 13.4159 4.49648 13.3074 4.50019C13.1989 4.50019 13.094 4.56312 13.031 4.65568L10.063 9.0984C10.021 9.16134 10 9.23538 10 9.31313C10 9.37236 10.014 9.4316 10.0385 9.48343C10.098 9.60561 10.217 9.68335 10.35 9.68335L12.1 9.68335L12.1 16.1298C12.1 16.3334 12.2575 16.5 12.45 16.5Z" fill="#717171"/>
</g>
</svg>
